<svg width="170" height="36" viewBox="0 0 170 36" fill="none" xmlns="http://www.w3.org/2000/svg">
<g clip-path="url(#clip0)">
<path d="M0 29.3007V36H14.6611H29.3223V29.3007H14.6611H0Z" fill="#FFD025"/>
<path d="M22.5998 29.3007H29.3206C29.3206 25.4799 27.859 22.0025 25.465 19.3928C23.6184 20.9788 21.3837 22.1053 18.9498 22.6213C21.1448 24.0332 22.5998 26.4969 22.5998 29.3007Z" fill="#FFD025"/>
<path d="M14.6611 0H0V6.6993C0 10.5417 1.47822 14.0373 3.89714 16.652C5.70883 15.0162 7.89382 13.8681 10.2348 13.2908C8.11613 11.8656 6.72252 9.44504 6.72252 6.6993H14.6611H29.3223V0H14.6611Z" fill="#23B2E7"/>
<path d="M22.5998 6.6993C22.5998 11.0842 19.046 14.6379 14.6611 14.6379C6.56325 14.6396 0 21.2028 0 29.3007H6.72086C6.72086 24.9158 10.2746 21.3621 14.6595 21.3621C22.7557 21.3621 29.3206 14.7988 29.3206 6.70095H22.5998V6.6993Z" fill="#12A65B"/>
<path d="M44.4297 8.67191C46.0837 8.67191 47.8755 9.57278 48.1841 11.708C47.4873 11.708 46.8718 11.708 46.175 11.708C45.8896 10.8984 45.2841 10.5317 44.4297 10.5317C43.2318 10.5317 42.4438 11.4326 42.4438 12.7565C42.4438 13.9311 43.2202 14.9598 44.4297 14.9697C45.2974 14.9697 45.9925 14.5367 46.2098 13.6806C46.895 13.6806 47.5222 13.6806 48.219 13.6806C47.922 15.9403 46.1302 16.8295 44.4297 16.8295C42.399 16.8411 40.3434 15.4707 40.3334 12.7549C40.3434 10.0423 42.3973 8.67191 44.4297 8.67191Z" fill="#383535"/>
<path d="M54.3924 15.7478H51.2418L50.7739 16.7515H48.7764V16.4546L52.3716 8.66029H53.2509L56.8577 16.4546V16.7515H54.8602L54.3924 15.7478ZM52.8063 11.8905L51.9154 13.9909H53.7188L52.8063 11.8905Z" fill="#383535"/>
<path d="M60.0182 12.8262V16.7515C59.3115 16.7515 58.6031 16.7515 57.9062 16.7515V8.7283H58.6479L62.6877 12.6769V8.76314C63.3845 8.76314 64.0796 8.76314 64.7764 8.76314V16.7631H64.0464L60.0182 12.8262Z" fill="#383535"/>
<path d="M69.8216 16.7515H66.8088V8.76315H69.8216C75.0261 8.78638 75.0261 16.7283 69.8216 16.7515ZM68.8511 14.8917H69.8216C72.3666 14.8917 72.3666 10.623 69.8216 10.623H68.8511V14.8917Z" fill="#383535"/>
<path d="M82.0207 16.4546V16.7515H79.7378L78.3691 14.4006H77.3073V16.7515C76.6221 16.7515 75.927 16.7515 75.265 16.7515C75.265 14.0921 75.265 11.4342 75.265 8.76315C76.4181 8.76315 77.6043 8.76315 78.769 8.76315C81.9079 8.77477 82.4786 12.5525 80.4579 13.9212L82.0207 16.4546ZM78.769 10.5898C78.2895 10.5782 77.7868 10.5898 77.309 10.5898C77.309 11.2401 77.309 11.9253 77.309 12.5641H78.769C79.8756 12.5641 79.9336 10.6014 78.769 10.5898Z" fill="#383535"/>
<path d="M88.2189 15.7478H85.0684L84.6005 16.7515H82.603V16.4546L86.1982 8.66029H87.0775L90.6843 16.4546V16.7515H88.6868L88.2189 15.7478ZM86.6312 11.8905L85.7403 13.9909H87.5437L86.6312 11.8905Z" fill="#383535"/>
<path d="M94.7457 16.7515H91.7328V8.76315H94.7457C99.9502 8.78638 99.9502 16.7283 94.7457 16.7515ZM93.7768 14.8917H94.7474C97.2924 14.8917 97.2924 10.623 94.7474 10.623H93.7768V14.8917Z" fill="#383535"/>
<path d="M103.59 14.9598C103.59 15.6333 103.59 16.0547 103.59 16.7515C102.231 16.7515 100.898 16.7515 99.5388 16.7515C99.5388 16.0547 99.5388 15.6333 99.5388 14.9598H100.554V10.5433H99.6184C99.6184 9.85813 99.6184 9.43673 99.6184 8.76315C100.919 8.76315 102.208 8.76315 103.511 8.76315C103.511 9.43673 103.511 9.85813 103.511 10.5433H102.575V14.9598H103.59Z" fill="#383535"/>
<path d="M111.978 8.73993H112.708V16.7515C112.012 16.7515 111.316 16.7515 110.62 16.7515V13.1912L108.919 14.9714H108.69L107.001 13.1912V16.7515C106.304 16.7515 105.609 16.7515 104.912 16.7515V8.73993H105.666L108.793 12.209L111.978 8.73993Z" fill="#383535"/>
<path d="M119.043 14.0589V8.76315C119.693 8.76315 120.378 8.76315 121.017 8.76315V14.0921C121.017 15.849 119.476 16.866 117.833 16.866C116.201 16.866 114.661 15.8507 114.661 14.0921V8.76315C115.3 8.76315 115.973 8.76315 116.612 8.76315V14.0589C116.612 14.7092 117.239 15.0294 117.833 15.0294C118.427 15.0278 119.043 14.7092 119.043 14.0589Z" fill="#383535"/>
<path d="M122.991 16.7515V8.76315C123.676 8.76315 124.36 8.76315 125.068 8.76315V11.7876H125.216C127.258 11.7876 127.156 10.258 127.156 8.76315C127.852 8.76315 128.547 8.76315 129.256 8.76315C129.256 10.3957 129.301 11.9021 127.715 12.9174L129.883 16.433V16.7532H127.612L125.856 13.659C125.583 13.7038 125.332 13.7038 125.068 13.7038V16.7515C124.362 16.7515 123.676 16.7515 122.991 16.7515Z" fill="#383535"/>
<path d="M136.116 15.7478H132.966L132.498 16.7515H130.5V16.4546L134.095 8.66029H134.975L138.581 16.4546V16.7515H136.584L136.116 15.7478ZM134.53 11.8905L133.639 13.9909H135.443L134.53 11.8905Z" fill="#383535"/>
<path d="M46.3924 27.7876C46.3924 29.533 44.9539 30.5384 43.3115 30.5384C41.669 30.5384 40.3218 29.5346 40.3218 27.7876V26.7491C40.949 26.7491 41.6109 26.7491 42.2497 26.7491V27.7528C42.2497 28.3799 42.7175 28.7117 43.3115 28.7117C43.9054 28.7117 44.3036 28.3915 44.3036 27.7528V24.2721H43.1389C43.1389 23.645 43.1389 23.051 43.1389 22.4571H46.3907V27.7876H46.3924Z" fill="#383535"/>
<path d="M52.9772 29.4434H49.8266L49.3588 30.4471H47.3613V30.1501L50.9565 22.3559H51.8358L55.4426 30.1501V30.4471H53.4451L52.9772 29.4434ZM51.3911 25.596L50.4903 27.6964H52.3169L51.3911 25.596Z" fill="#383535"/>
<path d="M61.7652 26.2928C62.4155 26.6246 62.7241 27.2169 62.7241 27.9253C62.7125 29.3173 61.868 30.4471 60.2355 30.4471H56.4927V22.4587H59.9054C61.2857 22.4587 62.394 23.5321 62.394 24.9125C62.3923 25.3919 62.1517 25.9726 61.7652 26.2928ZM58.467 24.2837V25.5728H59.7561C60.5657 25.5728 60.5657 24.2837 59.7444 24.2837H58.467ZM58.467 27.275V28.6338H60.0995C60.9207 28.6338 60.9091 27.275 60.0879 27.275H58.467Z" fill="#383535"/>
<path d="M68.9307 29.4434H65.7818L65.314 30.4471H63.3165V30.1501L66.9117 22.3559H67.791L71.3978 30.1501V30.4471H69.3986L68.9307 29.4434ZM67.3447 25.596L66.4438 27.6964H68.2704L67.3447 25.596Z" fill="#383535"/>
<path d="M79.1904 30.1501V30.4471H76.9075L75.5388 28.0962H74.477V30.4471C73.7918 30.4471 73.0967 30.4471 72.4347 30.4471C72.4347 27.7876 72.4347 25.1298 72.4347 22.4587C73.5877 22.4587 74.774 22.4587 75.9386 22.4587C79.0776 22.4703 79.6483 26.248 77.6276 27.6167L79.1904 30.1501ZM75.9386 24.2837C75.4592 24.2721 74.9565 24.2837 74.4787 24.2837C74.4787 24.934 74.4787 25.6192 74.4787 26.258H75.9386C77.0452 26.258 77.1033 24.2953 75.9386 24.2837Z" fill="#383535"/>
<path d="M87.1804 22.3675C88.8345 22.3675 90.6263 23.2683 90.9349 25.4036C90.2381 25.4036 89.6225 25.4036 88.9257 25.4036C88.6404 24.5939 88.0348 24.2289 87.1804 24.2289C85.9826 24.2289 85.1945 25.1298 85.1945 26.4537C85.1945 27.6284 85.9709 28.657 87.1804 28.6669C88.0481 28.6669 88.7432 28.2339 88.9606 27.3778C89.6458 27.3778 90.2729 27.3778 90.9697 27.3778C90.6727 29.6375 88.8809 30.5267 87.1804 30.5267C85.1497 30.5384 83.0941 29.168 83.0842 26.4521C83.0941 23.7362 85.148 22.3675 87.1804 22.3675Z" fill="#383535"/>
<path d="M92.0414 26.4637C92.0414 20.9407 100.236 20.9407 100.236 26.4637C100.236 31.9983 92.0414 31.9983 92.0414 26.4637ZM98.1468 26.4637C98.1468 23.5885 94.1418 23.5885 94.1418 26.4637C94.1418 29.3621 98.1468 29.3621 98.1468 26.4637Z" fill="#383535"/>
<path d="M104.79 30.4471H101.777V22.4587H104.79C109.993 22.482 109.993 30.4239 104.79 30.4471ZM103.819 28.5873H104.79C107.335 28.5873 107.335 24.3185 104.79 24.3185H103.819V28.5873Z" fill="#383535"/>
<path d="M113.634 28.6553V30.4471H109.583V28.6553H110.598V24.2389H109.662V22.4587H113.555V24.2389H112.619V28.6553H113.634Z" fill="#383535"/>
<path d="M117.08 26.5218V30.4471C116.373 30.4471 115.665 30.4471 114.968 30.4471V22.4239H115.71L119.749 26.3724V22.4587C120.446 22.4587 121.141 22.4587 121.838 22.4587V30.4587H121.108L117.08 26.5218Z" fill="#383535"/>
<path d="M127.477 22.3559C129.087 22.3675 130.764 23.2003 131.152 25.1862H129.143C128.811 24.501 128.287 24.2273 127.477 24.2273C126.188 24.2273 125.491 25.231 125.491 26.4521C125.491 27.776 126.268 28.6437 127.477 28.6437C128.299 28.6437 128.825 28.4264 129.19 27.6615H127.489V25.893H131.267C131.313 26.691 131.313 27.4558 131.038 28.2323C130.467 29.898 128.949 30.5384 127.477 30.5384C125.447 30.5384 123.393 29.1796 123.381 26.4521C123.391 23.7246 125.445 22.3559 127.477 22.3559Z" fill="#383535"/>
<path d="M139.643 22.3675C141.297 22.3675 143.089 23.2683 143.398 25.4036C142.701 25.4036 142.085 25.4036 141.389 25.4036C141.103 24.5939 140.498 24.2289 139.643 24.2289C138.445 24.2289 137.657 25.1298 137.657 26.4537C137.657 27.6284 138.434 28.657 139.643 28.6669C140.511 28.6669 141.206 28.2339 141.423 27.3778C142.109 27.3778 142.736 27.3778 143.433 27.3778C143.134 29.6358 141.344 30.5267 139.643 30.5267C137.613 30.5384 135.557 29.168 135.547 26.4521C135.557 23.7362 137.611 22.3675 139.643 22.3675Z" fill="#383535"/>
<path d="M149.515 29.4434H146.364L145.896 30.4471H143.899V30.1501L147.494 22.3559H148.373L151.98 30.1501V30.4471H149.983L149.515 29.4434ZM147.929 25.596L147.028 27.6964H148.854L147.929 25.596Z" fill="#383535"/>
<path d="M160.081 22.4355H160.811V30.4471C160.114 30.4471 159.419 30.4471 158.722 30.4471V26.8868L157.022 28.6669H156.793L155.104 26.8868V30.4471C154.407 30.4471 153.712 30.4471 153.015 30.4471V22.4355H153.769L156.896 25.9046L160.081 22.4355Z" fill="#383535"/>
<path d="M162.844 30.4471C162.844 27.7876 162.844 25.1298 162.844 22.4587C163.997 22.4587 165.183 22.4587 166.359 22.4587C170.182 22.4703 170.182 28.4048 166.359 28.4048H164.888V30.4471C164.202 30.4471 163.517 30.4471 162.844 30.4471ZM166.348 24.2837C165.868 24.2721 165.355 24.2837 164.888 24.2837C164.888 24.934 164.888 25.9162 164.888 26.5666H166.348C167.466 26.5666 167.534 24.2953 166.348 24.2837Z" fill="#383535"/>
</g>
<defs>
<clipPath id="clip0">
<rect width="169.226" height="36" fill="white"/>
</clipPath>
</defs>
</svg>
